<?xml version="1.0" encoding="utf-8"?>
<!-- Generator: Adobe Illustrator 27.7.0, SVG Export Plug-In . SVG Version: 6.00 Build 0)  -->
<svg version="1.1" xmlns="http://www.w3.org/2000/svg" xmlns:xlink="http://www.w3.org/1999/xlink" x="0px" y="0px"
	 viewBox="0 0 493.1 174.5" style="enable-background:new 0 0 493.1 174.5;" xml:space="preserve">
<style type="text/css">
	.st0{fill:none;}
</style>
<g id="Ebene_2">
</g>
<g id="Ebene_1">
	<path class="st0" d="M66.8,66.5c-12.1,0-20.1,9.4-20.1,22.9s8,22.9,20.1,22.9c12.3,0,20.2-9.4,20.2-22.9S79.1,66.5,66.8,66.5z"/>
	<path class="st0" d="M363.6,66.3c-12.1,0-20.1,9.4-20.1,22.9c0,13.5,8,22.9,20.1,22.9c12.3,0,20.2-9.4,20.2-22.9
		C383.8,75.6,375.9,66.3,363.6,66.3z"/>
	<path class="st0" d="M211.1,66.3c-12.1,0-20.1,9.4-20.1,22.9c0,13.5,8,22.9,20.1,22.9c12.3,0,20.2-9.4,20.2-22.9
		C231.4,75.6,223.4,66.3,211.1,66.3z"/>
	<g>
		<path d="M67.4,54.8c-7.7,0-14.6,2.3-20.1,6.3V37.2l0-7.6H34.2l0,59.7c0,0,0,0,0,0.1c0,19.8,13.5,34.6,33.2,34.6
			c19.7,0,33.9-14.8,33.9-34.6C101.3,69.6,87.1,54.8,67.4,54.8z M67.4,112.3c-12.1,0-20.1-9.4-20.1-22.9s8-22.9,20.1-22.9
			c12.3,0,20.2,9.4,20.2,22.9S79.7,112.3,67.4,112.3z"/>
		<polygon points="117.4,55.8 103.8,55.8 123.6,107.5 137.1,107.5 		"/>
		<polygon points="127.5,147.4 141.1,147.4 174.6,55.8 161,55.8 		"/>
		<path d="M363.6,54.8c-19.7,0-33.7,14.8-33.7,34.6c0,19.8,14,34.6,33.7,34.6c19.7,0,33.9-14.8,33.9-34.6
			C397.5,69.5,383.3,54.8,363.6,54.8z M363.6,112.3c-12.1,0-20.1-9.4-20.1-22.9c0-13.5,8-22.9,20.1-22.9c12.3,0,20.2,9.4,20.2,22.9
			C383.8,102.9,375.9,112.3,363.6,112.3z"/>
		<path d="M287.2,54.8c-19.8,0-30.9,14.8-30.9,34.6h0v33.4h13v-34l0,0c0.2-13.2,5.9-22.3,17.8-22.3c12.3,0,18,9.3,18,22.9v33.4h13
			l0-34.2C317.9,69.1,306.7,54.8,287.2,54.8z"/>
		<path d="M211.1,54.8c-19.7,0-33.7,14.8-33.7,34.6c0,19.8,14,34.6,33.7,34.6c19.7,0,33.9-14.8,33.9-34.6
			C245,69.5,230.9,54.8,211.1,54.8z M211.1,112.3c-12.1,0-20.1-9.4-20.1-22.9c0-13.5,8-22.9,20.1-22.9c12.3,0,20.2,9.4,20.2,22.9
			C231.4,102.9,223.4,112.3,211.1,112.3z"/>
		<polygon points="455.3,55.8 421.8,147.4 435.4,147.4 468.9,55.8 		"/>
		<polygon points="411.7,55.8 398.1,55.8 418.1,107.5 431.6,107.5 		"/>
	</g>
</g>
</svg>
